<svg width="148" height="22" viewBox="0 0 148 22" fill="none" xmlns="http://www.w3.org/2000/svg">
<path d="M25.032 1.176V1.736C24.4347 1.75467 23.9867 1.82933 23.688 1.96C23.3893 2.072 23.184 2.296 23.072 2.632C22.9787 2.94933 22.932 3.45333 22.932 4.144V18.032C22.932 18.704 22.9787 19.208 23.072 19.544C23.184 19.88 23.3893 20.104 23.688 20.216C23.9867 20.328 24.4347 20.4027 25.032 20.44V21C24.5093 20.9627 23.8467 20.944 23.044 20.944C22.26 20.9253 21.4573 20.916 20.636 20.916C19.74 20.916 18.9 20.9253 18.116 20.944C17.332 20.944 16.6973 20.9627 16.212 21V20.44C16.8467 20.4027 17.3227 20.328 17.64 20.216C17.976 20.104 18.2 19.88 18.312 19.544C18.424 19.208 18.48 18.704 18.48 18.032V2.884H18.676L11.732 21.028H11.284L3.724 2.996V16.408C3.724 17.4347 3.78 18.228 3.892 18.788C4.004 19.3293 4.24667 19.7213 4.62 19.964C5.012 20.188 5.61867 20.3467 6.44 20.44V21C6.08533 20.9627 5.61867 20.944 5.04 20.944C4.46133 20.9253 3.92 20.916 3.416 20.916C2.98667 20.916 2.548 20.9253 2.1 20.944C1.652 20.944 1.27867 20.9627 0.98 21V20.44C1.57733 20.3467 2.02533 20.188 2.324 19.964C2.62267 19.74 2.81867 19.376 2.912 18.872C3.024 18.3493 3.08 17.64 3.08 16.744V4.144C3.08 3.45333 3.024 2.94933 2.912 2.632C2.81867 2.296 2.61333 2.072 2.296 1.96C1.99733 1.82933 1.55867 1.75467 0.98 1.736V1.176C1.27867 1.19467 1.652 1.21333 2.1 1.232C2.548 1.25067 2.98667 1.26 3.416 1.26C4.21867 1.26 5.00267 1.25067 5.768 1.232C6.552 1.21333 7.24267 1.19467 7.84 1.176L13.72 15.372L13.02 16.016L18.648 1.26C18.9653 1.26 19.292 1.26 19.628 1.26C19.964 1.26 20.3 1.26 20.636 1.26C21.4573 1.26 22.26 1.25067 23.044 1.232C23.8467 1.21333 24.5093 1.19467 25.032 1.176ZM36.2532 1.12L43.0572 18.648C43.3186 19.32 43.6079 19.7867 43.9252 20.048C44.2612 20.2907 44.5599 20.4213 44.8212 20.44V21C44.2612 20.9627 43.5986 20.944 42.8332 20.944C42.0866 20.9253 41.3306 20.916 40.5652 20.916C39.7066 20.916 38.8946 20.9253 38.1292 20.944C37.3639 20.944 36.7572 20.9627 36.3092 21V20.44C37.2612 20.4027 37.8586 20.244 38.1012 19.964C38.3626 19.6653 38.3066 19.04 37.9332 18.088L33.1732 5.068L33.6772 4.34L29.4212 15.428C29.0106 16.4547 28.7586 17.2947 28.6652 17.948C28.5906 18.6013 28.6372 19.1053 28.8052 19.46C28.9919 19.8147 29.2812 20.0667 29.6732 20.216C30.0839 20.3467 30.5692 20.4213 31.1292 20.44V21C30.5132 20.9627 29.9252 20.944 29.3652 20.944C28.8052 20.9253 28.2359 20.916 27.6572 20.916C27.2466 20.916 26.8546 20.9253 26.4812 20.944C26.1266 20.944 25.8092 20.9627 25.5292 21V20.44C25.9212 20.3653 26.3226 20.1133 26.7332 19.684C27.1439 19.2547 27.5452 18.5267 27.9372 17.5L34.3212 1.12C34.6199 1.13867 34.9372 1.148 35.2732 1.148C35.6279 1.148 35.9546 1.13867 36.2532 1.12ZM38.2132 12.936V13.496H29.8692L30.1492 12.936H38.2132ZM45.0301 1.176C45.4968 1.19467 46.1221 1.21333 46.9061 1.232C47.7088 1.25067 48.5021 1.26 49.2861 1.26C50.1821 1.26 51.0501 1.25067 51.8901 1.232C52.7301 1.21333 53.3275 1.204 53.6821 1.204C55.4181 1.204 56.8555 1.4 57.9941 1.792C59.1515 2.16533 60.0101 2.716 60.5701 3.444C61.1488 4.172 61.4381 5.04933 61.4381 6.076C61.4381 6.71067 61.3075 7.35467 61.0461 8.008C60.7848 8.64267 60.3368 9.24 59.7021 9.8C59.0861 10.3413 58.2368 10.78 57.1541 11.116C56.0715 11.4333 54.7088 11.592 53.0661 11.592H50.3781V11.032H52.7861C53.8875 11.032 54.7181 10.8267 55.2781 10.416C55.8568 9.98667 56.2488 9.42667 56.4541 8.736C56.6781 8.02667 56.7901 7.24267 56.7901 6.384C56.7901 4.90933 56.5288 3.77067 56.0061 2.968C55.4835 2.14667 54.5875 1.736 53.3181 1.736C52.5901 1.736 52.1141 1.89467 51.8901 2.212C51.6848 2.52933 51.5821 3.17333 51.5821 4.144V18.032C51.5821 18.704 51.6288 19.208 51.7221 19.544C51.8341 19.88 52.0395 20.104 52.3381 20.216C52.6368 20.328 53.0848 20.4027 53.6821 20.44V21C53.1781 20.9627 52.5435 20.944 51.7781 20.944C51.0128 20.9253 50.2381 20.916 49.4541 20.916C48.5581 20.916 47.7088 20.9253 46.9061 20.944C46.1221 20.944 45.4968 20.9627 45.0301 21V20.44C45.6275 20.4027 46.0755 20.328 46.3741 20.216C46.6728 20.104 46.8688 19.88 46.9621 19.544C47.0741 19.208 47.1301 18.704 47.1301 18.032V4.144C47.1301 3.45333 47.0741 2.94933 46.9621 2.632C46.8688 2.296 46.6635 2.072 46.3461 1.96C46.0475 1.82933 45.6088 1.75467 45.0301 1.736V1.176ZM50.3221 11.116C51.1248 11.1347 51.8155 11.172 52.3941 11.228C52.9915 11.284 53.5141 11.34 53.9621 11.396C54.4101 11.4333 54.8115 11.4613 55.1661 11.48C56.8648 11.6293 58.1155 11.9933 58.9181 12.572C59.7395 13.1507 60.2715 14.0187 60.5141 15.176L61.1581 18.06C61.3261 18.8067 61.5035 19.3293 61.6901 19.628C61.8768 19.9267 62.1475 20.076 62.5021 20.076C62.7448 20.0573 62.9408 20.0013 63.0901 19.908C63.2581 19.796 63.4355 19.6373 63.6221 19.432L64.0141 19.768C63.5101 20.3467 62.9688 20.7573 62.3901 21C61.8115 21.2613 61.1115 21.392 60.2901 21.392C59.2821 21.392 58.4515 21.1773 57.7981 20.748C57.1448 20.3187 56.7155 19.5253 56.5101 18.368L56.0061 15.568C55.8755 14.784 55.7168 14.1027 55.5301 13.524C55.3435 12.9267 55.0821 12.46 54.7461 12.124C54.4288 11.7693 53.9808 11.592 53.4021 11.592H50.3781L50.3221 11.116ZM73.7688 1.12L80.5728 18.648C80.8342 19.32 81.1235 19.7867 81.4408 20.048C81.7768 20.2907 82.0755 20.4213 82.3368 20.44V21C81.7768 20.9627 81.1142 20.944 80.3488 20.944C79.6022 20.9253 78.8462 20.916 78.0808 20.916C77.2222 20.916 76.4102 20.9253 75.6448 20.944C74.8795 20.944 74.2728 20.9627 73.8248 21V20.44C74.7768 20.4027 75.3742 20.244 75.6168 19.964C75.8782 19.6653 75.8222 19.04 75.4488 18.088L70.6888 5.068L71.1928 4.34L66.9368 15.428C66.5262 16.4547 66.2742 17.2947 66.1808 17.948C66.1062 18.6013 66.1528 19.1053 66.3208 19.46C66.5075 19.8147 66.7968 20.0667 67.1888 20.216C67.5995 20.3467 68.0848 20.4213 68.6448 20.44V21C68.0288 20.9627 67.4408 20.944 66.8808 20.944C66.3208 20.9253 65.7515 20.916 65.1728 20.916C64.7622 20.916 64.3702 20.9253 63.9968 20.944C63.6422 20.944 63.3248 20.9627 63.0448 21V20.44C63.4368 20.3653 63.8382 20.1133 64.2488 19.684C64.6595 19.2547 65.0608 18.5267 65.4528 17.5L71.8368 1.12C72.1355 1.13867 72.4528 1.148 72.7888 1.148C73.1435 1.148 73.4702 1.13867 73.7688 1.12ZM75.7288 12.936V13.496H67.3848L67.6648 12.936H75.7288ZM92.9832 0.783998C94.9619 0.783998 96.6885 1.18533 98.1632 1.988C99.6565 2.79067 100.814 3.948 101.635 5.46C102.457 6.95333 102.867 8.77333 102.867 10.92C102.867 13.0107 102.447 14.84 101.607 16.408C100.767 17.976 99.5912 19.1987 98.0792 20.076C96.5859 20.9533 94.8779 21.392 92.9552 21.392C90.9765 21.392 89.2405 20.9907 87.7472 20.188C86.2725 19.3853 85.1245 18.228 84.3032 16.716C83.4819 15.204 83.0712 13.384 83.0712 11.256C83.0712 9.16533 83.4912 7.336 84.3312 5.768C85.1899 4.2 86.3565 2.97733 87.8312 2.1C89.3245 1.22267 91.0419 0.783998 92.9832 0.783998ZM92.8712 1.288C91.8259 1.288 90.9112 1.708 90.1272 2.548C89.3619 3.388 88.7645 4.54533 88.3352 6.02C87.9245 7.49467 87.7192 9.20267 87.7192 11.144C87.7192 13.1227 87.9525 14.8493 88.4192 16.324C88.9045 17.78 89.5485 18.9093 90.3512 19.712C91.1725 20.496 92.0779 20.888 93.0672 20.888C94.1125 20.888 95.0179 20.468 95.7832 19.628C96.5672 18.788 97.1645 17.6307 97.5752 16.156C98.0045 14.6627 98.2192 12.9547 98.2192 11.032C98.2192 9.03467 97.9765 7.308 97.4912 5.852C97.0245 4.396 96.3805 3.276 95.5592 2.492C94.7565 1.68933 93.8605 1.288 92.8712 1.288ZM107.276 17.08C108.004 17.08 108.583 17.276 109.012 17.668C109.441 18.0413 109.656 18.564 109.656 19.236C109.656 19.908 109.441 20.44 109.012 20.832C108.583 21.2053 108.004 21.392 107.276 21.392C106.548 21.392 105.969 21.2053 105.54 20.832C105.111 20.44 104.896 19.908 104.896 19.236C104.896 18.564 105.111 18.0413 105.54 17.668C105.969 17.276 106.548 17.08 107.276 17.08ZM122.11 0.783998C123.379 0.783998 124.415 0.961332 125.218 1.316C126.02 1.67067 126.739 2.1 127.374 2.604C127.598 2.772 127.784 2.856 127.934 2.856C128.288 2.856 128.522 2.296 128.634 1.176H129.278C129.24 1.904 129.212 2.79067 129.194 3.836C129.175 4.86267 129.166 6.23467 129.166 7.952H128.522C128.391 6.832 128.186 5.86133 127.906 5.04C127.644 4.2 127.15 3.48133 126.422 2.884C125.974 2.45467 125.414 2.11867 124.742 1.876C124.088 1.63333 123.426 1.512 122.754 1.512C121.727 1.512 120.85 1.78267 120.122 2.324C119.394 2.84667 118.796 3.56533 118.33 4.48C117.863 5.39467 117.518 6.43067 117.294 7.588C117.07 8.72667 116.958 9.912 116.958 11.144C116.958 14.504 117.415 16.9587 118.33 18.508C119.263 20.0573 120.598 20.832 122.334 20.832C122.782 20.832 123.174 20.776 123.51 20.664C123.846 20.552 124.116 20.4213 124.322 20.272C124.583 20.0853 124.76 19.8893 124.854 19.684C124.947 19.46 124.994 19.1707 124.994 18.816V16.072C124.994 15.2133 124.919 14.5787 124.77 14.168C124.639 13.7387 124.368 13.4493 123.958 13.3C123.547 13.1507 122.95 13.0667 122.166 13.048V12.488C122.558 12.5067 123.024 12.5253 123.566 12.544C124.126 12.544 124.704 12.5533 125.302 12.572C125.899 12.572 126.45 12.572 126.954 12.572C127.738 12.572 128.456 12.5627 129.11 12.544C129.763 12.5253 130.295 12.5067 130.706 12.488V13.048C130.351 13.0667 130.08 13.132 129.894 13.244C129.726 13.356 129.604 13.58 129.53 13.916C129.474 14.252 129.446 14.7653 129.446 15.456V21H128.886C128.867 20.6827 128.792 20.3373 128.662 19.964C128.55 19.5907 128.354 19.404 128.074 19.404C127.943 19.404 127.766 19.4413 127.542 19.516C127.336 19.572 127.01 19.7307 126.562 19.992C125.871 20.384 125.143 20.72 124.378 21C123.612 21.2613 122.81 21.392 121.97 21.392C119.804 21.392 117.975 20.9907 116.482 20.188C114.988 19.3853 113.859 18.2373 113.094 16.744C112.347 15.232 111.974 13.4213 111.974 11.312C111.974 9.184 112.403 7.336 113.262 5.768C114.139 4.2 115.334 2.97733 116.846 2.1C118.376 1.22267 120.131 0.783998 122.11 0.783998ZM147.291 1.176C147.217 1.99733 147.161 2.79067 147.123 3.556C147.105 4.32133 147.095 4.90933 147.095 5.32C147.095 5.69333 147.105 6.048 147.123 6.384C147.142 6.72 147.161 7 147.179 7.224H146.535C146.349 5.86133 146.059 4.788 145.667 4.004C145.275 3.20133 144.762 2.64133 144.127 2.324C143.511 1.988 142.783 1.82 141.943 1.82H140.795C140.254 1.82 139.843 1.86667 139.563 1.96C139.283 2.05333 139.097 2.24 139.003 2.52C138.91 2.8 138.863 3.22933 138.863 3.808V18.368C138.863 18.9467 138.91 19.376 139.003 19.656C139.097 19.936 139.283 20.1227 139.563 20.216C139.843 20.3093 140.254 20.356 140.795 20.356H142.167C143.007 20.356 143.745 20.1787 144.379 19.824C145.033 19.4507 145.583 18.8253 146.031 17.948C146.498 17.0707 146.853 15.8853 147.095 14.392H147.739C147.683 14.9893 147.655 15.7733 147.655 16.744C147.655 17.1733 147.665 17.78 147.683 18.564C147.702 19.348 147.758 20.16 147.851 21C146.899 20.9627 145.826 20.944 144.631 20.944C143.437 20.9253 142.373 20.916 141.439 20.916C140.973 20.916 140.375 20.916 139.647 20.916C138.919 20.916 138.135 20.9253 137.295 20.944C136.455 20.944 135.606 20.9533 134.747 20.972C133.889 20.972 133.077 20.9813 132.311 21V20.44C132.909 20.4027 133.357 20.328 133.655 20.216C133.954 20.104 134.15 19.88 134.243 19.544C134.355 19.208 134.411 18.704 134.411 18.032V4.144C134.411 3.45333 134.355 2.94933 134.243 2.632C134.15 2.296 133.945 2.072 133.627 1.96C133.329 1.82933 132.89 1.75467 132.311 1.736V1.176C133.077 1.19467 133.889 1.21333 134.747 1.232C135.606 1.232 136.455 1.24133 137.295 1.26C138.135 1.26 138.919 1.26 139.647 1.26C140.375 1.26 140.973 1.26 141.439 1.26C142.298 1.26 143.269 1.26 144.351 1.26C145.453 1.24133 146.433 1.21333 147.291 1.176ZM142.923 10.752C142.923 10.752 142.923 10.8453 142.923 11.032C142.923 11.2187 142.923 11.312 142.923 11.312H138.023C138.023 11.312 138.023 11.2187 138.023 11.032C138.023 10.8453 138.023 10.752 138.023 10.752H142.923ZM143.735 7.056C143.661 8.12 143.623 8.932 143.623 9.492C143.642 10.052 143.651 10.5653 143.651 11.032C143.651 11.4987 143.661 12.012 143.679 12.572C143.698 13.132 143.745 13.944 143.819 15.008H143.175C143.082 14.3547 142.905 13.748 142.643 13.188C142.401 12.628 142.046 12.18 141.579 11.844C141.113 11.4893 140.506 11.312 139.759 11.312V10.752C140.319 10.752 140.795 10.64 141.187 10.416C141.579 10.1733 141.897 9.86533 142.139 9.492C142.401 9.1 142.606 8.68933 142.755 8.26C142.905 7.83067 143.017 7.42933 143.091 7.056H143.735Z" fill="#212121"/>
</svg>
